<?xml version="1.0" standalone="no"?>
<!DOCTYPE svg PUBLIC "-//W3C//DTD SVG 1.1//EN" "http://www.w3.org/Graphics/SVG/1.1/DTD/svg11.dtd" >
<svg xmlns="http://www.w3.org/2000/svg">
<metadata>Generated by IcoMoon</metadata>
<defs>
<font id="icomoon" horiz-adv-x="1024">
<font-face units-per-em="1024" ascent="960" descent="-64" />
<missing-glyph horiz-adv-x="1024" />
<glyph unicode="&#x20;" horiz-adv-x="512" d="" />
<glyph unicode="&#xe900;" glyph-name="star-full" horiz-adv-x="1078" d="M492.162 911.978c16.133 49.654 86.381 49.654 102.512 0l83.434-256.774c7.211-22.206 27.907-37.24 51.254-37.24h269.991c52.208 0 73.917-66.809 31.679-97.497l-218.43-158.698c-18.885-13.722-26.791-38.050-19.575-60.254l83.429-256.776c16.136-49.653-40.696-90.942-82.933-60.254l-218.425 158.698c-18.89 13.722-44.47 13.722-63.359 0l-218.426-158.698c-42.238-30.688-99.069 10.601-82.935 60.254l83.431 256.776c7.215 22.205-0.689 46.533-19.578 60.254l-218.426 158.698c-42.238 30.688-20.53 97.497 31.679 97.497h269.988c23.349 0 44.042 15.034 51.257 37.24l83.431 256.774z" />
<glyph unicode="&#xe901;" glyph-name="call-back" horiz-adv-x="853" d="M606.771-63.991c-11.354 0-22.583 1.135-30.775 3.123-58.968 14.353-115.948 43.639-174.27 89.549-123.192 96.936-227.836 223.108-310.985 374.991-39.715 72.591-67.064 144.062-83.663 218.523l-0.426 1.934c-5.379 23.894-19.68 87.376 23.275 155.855 33.91 54.046 75.489 116.216 126.698 167.884l12.046 12.132h15.775c24.367 0 32.373-15.186 51.725-51.835 6.223-11.805 18.953-36.142 34.246-66.653 34.505-68.85 56.5-117.78 65.36-145.459 10.395-32.41 7.351-57.711-9.063-75.147-7.003-7.462-14.185-14.722-21.366-21.982-9.561-9.659-18.58-18.779-27.047-28.247l-1.935-2.156c-1.083-1.216-2.193-2.452-3.294-3.678 0.143-0.475 0.258-0.94 0.391-1.384l1.784-6.479c17.691-64.548 46.958-124.143 89.478-182.16 33.937-46.287 68.671-79.281 106.167-100.86 20.621-11.847 39.661-18.557 58.179-20.512 0.524-0.053 1.056-0.106 1.571-0.116 15.171 18.505 31.415 37.116 48.406 55.504 6.223 6.711 16.99 14.711 33.085 14.711 10.225 0 34.175 0 131.536-73.373 96.429-72.654 102.731-91.751 106.503-103.165 6.746-20.396 2.495-43.116-10.812-57.87-13.546-15.019-28.903-32.034-46.008-47.659-24.969-22.81-52.089-46.447-82.892-72.235l-3.347-2.526c-37.193-25.37-75.098-30.72-100.333-30.72l-0.008 0.009z" />
<glyph unicode="&#xe902;" glyph-name="instagram" d="M772.425 949.089h-481.431c-132.383 0-240.717-108.287-240.717-240.717v-481.432c0-132.381 108.334-240.72 240.717-240.72h481.431c132.389 0 240.72 108.339 240.72 240.72v481.432c0 132.43-108.332 240.717-240.72 240.717zM531.711 267.066c-110.803 0-200.601 89.836-200.601 200.589 0 110.803 89.798 200.602 200.601 200.602 110.754 0 200.603-89.798 200.603-200.602 0-110.753-89.849-200.589-200.603-200.589zM792.488 668.257c-33.265 0-60.175 26.949-60.175 60.18s26.909 60.179 60.175 60.179c33.273 0 60.182-26.949 60.182-60.179s-26.909-60.18-60.182-60.18z" />
<glyph unicode="&#xe903;" glyph-name="twitter" horiz-adv-x="1243" d="M1193.567 808.595c-44.017-19.074-89.498-32.279-137.918-38.148 49.883 29.344 88.035 76.295 105.64 133.517-46.95-27.877-98.304-46.951-152.591-58.689-44.017 46.951-107.11 76.296-176.069 76.296-133.516 0-240.624-108.575-240.624-240.625 0-19.074 1.467-36.68 5.869-54.287-199.543 8.803-375.611 105.64-494.457 250.896-85.099-152.592 10.271-278.774 73.362-321.323-38.148 0-76.296 11.738-108.575 29.345 0-118.845 83.632-217.15 192.207-239.158-23.476-7.336-76.296-11.738-108.575-4.402 30.811-95.37 120.313-165.794 224.486-167.264-82.165-64.556-202.478-115.909-356.536-99.774 107.108-68.959 233.289-108.573 369.742-108.573 443.102 0 683.727 366.808 683.727 683.729 0 10.27 0 20.541-1.463 30.811 49.883 36.68 90.968 79.231 121.776 127.649z" />
<glyph unicode="&#xe904;" glyph-name="fb" horiz-adv-x="576" d="M357.247-60.179v439.176h147.354l22.108 171.206h-169.462v109.29c0 49.553 13.704 83.322 84.842 83.322l90.584 0.037v153.133c-15.665 2.036-69.438 6.703-132.024 6.703-130.69 0-220.163-79.772-220.163-226.239v-126.246h-147.801v-171.206h147.801v-439.176h176.761z" />
<glyph unicode="&#xe905;" glyph-name="dropdown-down" horiz-adv-x="1593" d="M826.709 15.303l744.448 744.562c7.71 7.719 12.478 18.378 12.478 30.151s-4.768 22.432-12.478 30.152v0l-70.315 70.542c-7.731 7.778-18.436 12.592-30.265 12.592s-22.534-4.814-30.263-12.59l-0.002-0.002-643.868-642.503-643.982 642.389c-7.719 7.71-18.378 12.478-30.151 12.478s-22.432-4.768-30.152-12.478v0l-70.542-70.542c-7.71-7.719-12.478-18.378-12.478-30.151s4.768-22.432 12.478-30.152v0l744.562-744.562c7.731-7.778 18.436-12.592 30.265-12.592s22.534 4.814 30.263 12.59l0.002 0.002z" />
<glyph unicode="&#xe906;" glyph-name="question-icon" horiz-adv-x="910" d="M455.111 957.778c-196.053 0-355.556-159.503-355.556-355.555 0-49.094 39.796-88.889 88.889-88.889s88.889 39.795 88.889 88.889c0 98.026 79.751 177.778 177.778 177.778s177.778-79.751 177.778-177.778c0-98.026-79.751-177.778-177.778-177.778-49.093 0-88.889-39.796-88.889-88.889v-222.223c0-49.093 39.796-88.889 88.889-88.889s88.889 39.796 88.889 88.889v144.583c153.182 39.568 266.667 178.933 266.667 344.306 0 196.053-159.503 355.555-355.556 355.555z" />
<glyph unicode="&#xe907;" glyph-name="cross" d="M297.344 662.656c5.794 5.808 13.805 9.401 22.656 9.401s16.862-3.593 22.655-9.401l169.345-169.409 169.344 169.408c5.798 5.798 13.808 9.384 22.656 9.384 17.695 0 32.040-14.345 32.040-32.040 0-8.848-3.586-16.858-9.384-22.656v0l-169.408-169.344 169.408-169.344c5.798-5.798 9.384-13.808 9.384-22.656 0-17.695-14.345-32.040-32.040-32.040-8.848 0-16.858 3.586-22.656 9.384v0l-169.344 169.408-169.344-169.408c-5.798-5.798-13.808-9.384-22.656-9.384-17.695 0-32.040 14.345-32.040 32.040 0 8.848 3.586 16.858 9.384 22.656v0l169.408 169.344-169.408 169.344c-5.808 5.794-9.401 13.805-9.401 22.656s3.593 16.862 9.401 22.655l0.001 0.001z" />
<glyph unicode="&#xe908;" glyph-name="check" d="M886.656 726.656c5.808-5.794 9.401-13.805 9.401-22.656s-3.593-16.862-9.401-22.655l-448.001-448.001c-5.794-5.808-13.805-9.401-22.656-9.401s-16.862 3.593-22.655 9.401l-224.001 224.001c-5.798 5.798-9.384 13.808-9.384 22.656 0 17.695 14.345 32.040 32.040 32.040 8.848 0 16.858-3.586 22.656-9.384v0l201.344-201.408 425.344 425.408c5.794 5.808 13.805 9.401 22.656 9.401s16.862-3.593 22.655-9.401l0.001-0.001z" />
<glyph unicode="&#xe909;" glyph-name="chevron-right" d="M297.344 854.656c5.794 5.808 13.805 9.401 22.656 9.401s16.862-3.593 22.655-9.401l384.001-384.001c5.808-5.794 9.401-13.805 9.401-22.656s-3.593-16.862-9.401-22.655l-384.001-384.001c-5.798-5.798-13.808-9.384-22.656-9.384-17.695 0-32.040 14.345-32.040 32.040 0 8.848 3.586 16.858 9.384 22.656v0l361.408 361.344-361.408 361.344c-5.808 5.794-9.401 13.805-9.401 22.656s3.593 16.862 9.401 22.655l0.001 0.001z" />
<glyph unicode="&#xe90a;" glyph-name="Star-1" horiz-adv-x="1078" d="M492.179 911.981c16.133 49.654 86.381 49.654 102.512 0l83.434-256.775c7.211-22.206 27.907-37.24 51.254-37.24h269.991c52.208 0 73.917-66.809 31.679-97.497l-218.425-158.696c-18.89-13.722-26.796-38.050-19.58-60.254l83.429-256.776c16.136-49.653-40.696-90.942-82.933-60.254l-218.425 158.693c-18.89 13.727-44.47 13.727-63.359 0l-218.425-158.693c-42.238-30.688-99.069 10.601-82.936 60.254l83.431 256.776c7.215 22.205-0.689 46.533-19.578 60.254l-218.425 158.696c-42.238 30.688-20.531 97.497 31.678 97.497h269.989c23.348 0 44.042 15.034 51.257 37.24l83.431 256.775z" />
<glyph unicode="&#xe90b;" glyph-name="close_cross" d="M1024 839.334l-120.666 120.666-391.335-391.333-391.333 391.333-120.666-120.666 391.333-391.333-391.333-391.335 120.666-120.666 391.333 391.333 391.333-391.333 120.666 120.666-391.33 391.335z" />
<glyph unicode="&#xe90c;" glyph-name="chevron-down" d="M105.344 662.656c5.794 5.808 13.805 9.401 22.656 9.401s16.862-3.593 22.655-9.401l361.345-361.409 361.344 361.408c5.798 5.798 13.808 9.384 22.656 9.384 17.695 0 32.040-14.345 32.040-32.040 0-8.848-3.586-16.858-9.384-22.656v0l-384-384c-5.794-5.808-13.805-9.401-22.656-9.401s-16.862 3.593-22.655 9.401l-384.001 384.001c-5.808 5.794-9.401 13.805-9.401 22.656s3.593 16.862 9.401 22.655l0.001 0.001z" />
<glyph unicode="&#xe90d;" glyph-name="star" d="M237.824 304.555l-54.059-331.392c-1.963-12.075 3.115-24.235 13.141-31.317 9.984-7.040 23.168-7.808 33.92-1.835l281.173 155.392 281.173-155.435c4.864-2.645 10.197-3.968 15.488-3.968 6.485 0 12.928 1.963 18.432 5.845 10.027 7.083 15.104 19.243 13.141 31.317l-54.059 331.392 228.693 234.411c8.363 8.576 11.264 21.163 7.467 32.512-3.797 11.392-13.653 19.627-25.515 21.461l-314.795 48.085-141.099 300.544c-10.539 22.443-47.36 22.443-57.899 0l-141.056-300.544-314.795-48.085c-11.861-1.835-21.717-10.069-25.515-21.461s-0.939-23.936 7.424-32.512zM368.512 580.352c10.539 1.621 19.584 8.363 24.107 18.005l119.381 254.336 119.381-254.293c4.523-9.643 13.568-16.427 24.107-18.005l270.123-41.259-196.48-201.387c-7.125-7.253-10.325-17.493-8.704-27.52l46.080-282.325-239.019 132.096c-4.821 2.645-10.155 4.011-15.488 4.011s-10.667-1.323-15.488-4.011l-239.019-132.096 46.080 282.325c1.621 10.027-1.579 20.224-8.704 27.52l-196.48 201.387z" />
<glyph unicode="&#xe90e;" glyph-name="Tickmark" d="M0 415.331l350.663-351.332 673.337 672.672-96.669 95.332-576.669-576-255.333 255.331z" />
<glyph unicode="&#xe90f;" glyph-name="filled_star" d="M536.206 920.156l130.254-308.288 333.466-28.647c23.128-1.997 32.537-30.855 14.981-46.046l-252.938-219.139 75.797-326.002c5.256-22.655-19.291-40.474-39.16-28.437l-286.579 172.831-286.579-172.831c-19.922-11.985-44.417 5.835-39.16 28.437l75.797 326.002-252.991 219.192c-17.556 15.191-8.2 44.049 14.981 46.046l333.466 28.647 130.254 308.236c9.041 21.446 39.37 21.446 48.411 0z" />
<glyph unicode="&#xe910;" glyph-name="half_star" d="M1022.966 564.72c-2.489 7.646-9.091 13.215-17.054 14.354l-328.435 47.397-146.557 297.712c-3.544 7.214-10.884 11.781-18.921 11.781s-15.377-4.567-18.921-11.77l-146.567-297.712-328.424-47.397c-7.952-1.139-14.565-6.718-17.054-14.354-2.478-7.646-0.411-16.042 5.358-21.642l237.839-231.384-56.404-326.99c-1.371-7.91 1.888-15.926 8.385-20.64 6.518-4.735 15.124-5.358 22.232-1.603l293.557 154.699 293.557-154.699c3.090-1.624 6.455-2.426 9.84-2.426 4.377 0 8.722 1.361 12.403 4.039 6.497 4.714 9.766 12.73 8.385 20.64l-56.404 326.99 237.839 231.384c5.737 5.59 7.826 13.985 5.347 21.621zM875.007 501.894l-170.878-166.227 40.52-234.907c0.981-5.706-1.361-11.454-6.022-14.85-2.637-1.919-5.769-2.879-8.912-2.879-2.415 0-4.841 0.58-7.066 1.74l-210.913 111.131v588.274c5.769 0 11.032-3.28 13.595-8.458l105.309-213.887 235.961-34.055c5.716-0.812 10.452-4.82 12.245-10.315 1.793-5.505 0.285-11.517-3.839-15.567z" />
<glyph unicode="&#xe911;" glyph-name="right-arrow" d="M796.462 487.956l-455.693 455.685c-10.54 10.548-24.609 16.359-39.611 16.359s-29.071-5.811-39.611-16.359l-33.559-33.55c-21.837-21.862-21.837-57.393 0-79.222l382.657-382.657-383.081-383.081c-10.54-10.548-16.359-24.609-16.359-39.603 0-15.010 5.819-29.071 16.359-39.628l33.559-33.542c10.548-10.548 24.609-16.359 39.611-16.359s29.071 5.811 39.611 16.359l456.118 456.101c10.565 10.581 16.367 24.709 16.334 39.728 0.033 15.077-5.769 29.196-16.334 39.769z" />
<glyph unicode="&#xe912;" glyph-name="lock" horiz-adv-x="778" d="M696.32 565.4h-36v101.2c0 149.6-121.598 271.4-271.2 271.4-149.6 0-271.2-121.8-271.2-271.2v-101.2h-35.8c-35.4 0-64.2-28.799-64.2-64.2v-479.199c0-35.402 28.8-64.201 64.2-64.201h614.401c35.402 0 64.201 28.799 64.201 64.201v479.199c-0.201 35.201-29 64-64.401 64zM199.52 666.8c0 104.6 85 189.6 189.6 189.6s189.6-85 189.6-189.6v-101h-379.199v101zM678.719 39.6h-579.199v444.199h579.4v-444.199h-0.201zM389.12 100.602c22.602 0 40.8 18.199 40.8 40.796v105.202c0 22.602-18.199 40.8-40.8 40.8s-40.8-18.199-40.8-40.8v-105.202c0-22.397 18.2-40.796 40.8-40.796z" />
<glyph unicode="&#xe913;" glyph-name="document" d="M896 789.332c0 11.316-4.493 22.168-12.497 30.17s-18.854 12.497-30.171 12.497h-128v42.667c0 11.316-4.493 22.168-12.497 30.17-7.999 8.002-18.854 12.496-30.167 12.496h-341.335c-11.316 0-22.168-4.495-30.17-12.496s-12.496-18.854-12.496-30.17v-42.667h-128c-11.316 0-22.168-4.495-30.17-12.497s-12.497-18.854-12.497-30.17v-768c0-11.317 4.495-22.168 12.497-30.171 8.002-7.999 18.854-12.497 30.17-12.497h682.665c11.317 0 22.168 4.497 30.171 12.497 8.004 8.004 12.497 18.854 12.497 30.171v768zM384 831.999h256v-85.333h-256v85.333zM810.668 64h-597.335v682.666h85.334v-42.667c0-11.316 4.495-22.168 12.496-30.17s18.854-12.497 30.17-12.497h341.335c11.313 0 22.168 4.495 30.167 12.497 8.004 8.002 12.497 18.854 12.497 30.17v42.667h85.336v-682.666zM512 234.664h-170.667c-11.316 0-22.168-4.493-30.17-12.493-8.002-8.004-12.496-18.858-12.496-30.171 0-11.317 4.495-22.168 12.496-30.171 8.002-7.999 18.854-12.497 30.17-12.497h170.667c11.317 0 22.168 4.497 30.171 12.497 7.999 8.004 12.497 18.854 12.497 30.171 0 11.313-4.497 22.168-12.497 30.171-8.004 7.999-18.854 12.493-30.171 12.493zM682.668 405.332h-341.335c-11.316 0-22.168-4.493-30.17-12.497-8.002-7.999-12.496-18.854-12.496-30.171 0-11.313 4.495-22.168 12.496-30.167 8.002-8.004 18.854-12.497 30.17-12.497h341.335c11.313 0 22.168 4.493 30.167 12.497 8.004 7.999 12.497 18.854 12.497 30.167 0 11.317-4.493 22.172-12.497 30.171-7.999 8.004-18.854 12.497-30.167 12.497zM682.668 575.999h-341.335c-11.316 0-22.168-4.495-30.17-12.497s-12.496-18.853-12.496-30.17c0-11.317 4.495-22.168 12.496-30.171 8.002-7.999 18.854-12.497 30.17-12.497h341.335c11.313 0 22.168 4.497 30.167 12.497 8.004 8.004 12.497 18.854 12.497 30.171s-4.493 22.169-12.497 30.17c-7.999 8.002-18.854 12.497-30.167 12.497z" />
<glyph unicode="&#xe914;" glyph-name="shield" d="M853.332 789.332c-153.981 0-314.155 118.272-315.732 119.467-7.385 5.539-16.368 8.533-25.6 8.533s-18.215-2.994-25.6-8.533c-1.577-1.195-161.749-119.467-315.733-119.467-11.316 0-22.168-4.495-30.17-12.496s-12.497-18.854-12.497-30.17c0-25.6 4.267-628.439 369.025-765.311 9.634-3.564 20.23-3.564 29.864 0 364.843 136.872 369.111 739.711 369.111 765.311 0 11.316-4.493 22.168-12.497 30.17s-18.854 12.496-30.171 12.496zM512 67.326c-247.467 107.606-289.92 509.825-297.173 639.105 106.479 16.196 208.003 55.946 297.173 116.352 89.17-60.406 190.693-100.156 297.173-116.352-7.041-129.28-49.705-531.499-297.173-639.105zM341.33 490.664c0-33.751 10.009-66.748 28.763-94.814s45.406-49.943 76.593-62.857c31.187-12.919 65.499-16.298 98.607-9.716 33.104 6.586 63.517 22.843 87.384 46.711s40.124 54.276 46.707 87.384c6.586 33.104 3.207 67.42-9.712 98.605-12.915 31.185-34.791 57.84-62.857 76.593s-61.063 28.763-94.818 28.763c-45.261 0-88.674-17.981-120.679-49.987s-49.987-75.417-49.987-120.682zM597.332 490.664c0-16.876-5.005-33.374-14.385-47.407-9.376-14.033-22.7-24.969-38.294-31.429s-32.752-8.147-49.304-4.858c-16.552 3.293-31.76 11.424-43.692 23.355-11.936 11.936-20.062 27.14-23.355 43.692s-1.602 33.71 4.858 49.304c6.459 15.593 17.396 28.92 31.429 38.297s30.532 14.381 47.407 14.381c22.634 0 44.339-8.99 60.342-24.993s24.994-37.707 24.994-60.342z" />
<glyph unicode="&#xe915;" glyph-name="search-icon" d="M1014.285-8.29l-264.383 260.154c69.236 75.219 111.772 174.699 111.772 284.165-0.031 234.167-192.908 423.971-430.853 423.971s-430.821-189.803-430.821-423.971c0-234.167 192.877-423.973 430.821-423.973 102.808 0 197.1 35.56 271.167 94.68l265.407-261.182c12.934-12.738 33.926-12.738 46.859 0 12.96 12.738 12.96 33.418 0.031 46.156zM430.821 177.29c-201.326 0-364.533 160.612-364.533 358.739s163.206 358.74 364.533 358.74c201.33 0 364.533-160.613 364.533-358.74s-163.203-358.739-364.533-358.739z" />
<glyph unicode="&#xe916;" glyph-name="help-li" horiz-adv-x="683" d="M0-64v1024l682.667-512-682.667-512z" />
<glyph unicode="&#xe917;" glyph-name="pencil" d="M992.116 835.402l-92.793 92.8c-42.4 42.398-111.38 42.396-153.776 0l-36.32-36.322 246.565-246.587 36.324 36.321c42.496 42.498 42.496 111.286 0 153.788zM44.024 206.5l-43.522-235.042c-1.798-9.709 1.298-19.689 8.284-26.68 6.994-6.991 16.974-10.082 26.676-8.285l235.023 43.529-226.461 226.477zM666.826 849.455l-590.417-590.463 246.568-246.583 590.417 590.458-246.568 246.588z" />
</font>
</defs>
</svg>
